<svg width="135" height="15" viewBox="0 0 135 15" fill="none" xmlns="http://www.w3.org/2000/svg">
<path d="M2.50375 14H0.34375V0.6H2.50375V14ZM10.7638 14H0.98375V12.06H10.7638V14ZM16.3002 14.2C15.3668 14.2 14.5935 14.0133 13.9802 13.64C13.3668 13.2667 12.9068 12.7667 12.6002 12.14C12.2935 11.5133 12.1402 10.8133 12.1402 10.04V4.06H14.2802V9.46C14.2802 10.38 14.5068 11.08 14.9602 11.56C15.4268 12.0267 16.1868 12.26 17.2402 12.26C18.3468 12.26 19.1535 11.9867 19.6602 11.44C20.1802 10.88 20.4402 10.06 20.4402 8.98L20.8202 8.96L20.9402 10.92H20.4802C20.3868 11.48 20.1735 12.0067 19.8402 12.5C19.5068 12.9933 19.0468 13.4 18.4602 13.72C17.8868 14.04 17.1668 14.2 16.3002 14.2ZM22.6002 14H20.6202V10.88L20.4402 10.78V4.06H22.6002V14ZM26.2025 14H23.6225L27.9025 9.08V8.96L23.6225 4.06H26.2425L29.5425 7.82H29.6625L32.9225 4.06H35.5225L31.2425 8.92V9.04L35.5225 14H32.9025L29.6025 10.2H29.4625L26.2025 14ZM40.7142 14.2C39.7809 14.2 39.0076 14.0133 38.3942 13.64C37.7809 13.2667 37.3209 12.7667 37.0142 12.14C36.7076 11.5133 36.5542 10.8133 36.5542 10.04V4.06H38.6942V9.46C38.6942 10.38 38.9209 11.08 39.3742 11.56C39.8409 12.0267 40.6009 12.26 41.6542 12.26C42.7609 12.26 43.5676 11.9867 44.0742 11.44C44.5942 10.88 44.8542 10.06 44.8542 8.98L45.2342 8.96L45.3542 10.92H44.8942C44.8009 11.48 44.5876 12.0067 44.2542 12.5C43.9209 12.9933 43.4609 13.4 42.8742 13.72C42.3009 14.04 41.5809 14.2 40.7142 14.2ZM47.0142 14H45.0342V10.88L44.8542 10.78V4.06H47.0142V14ZM51.1366 14H48.9766V4.06H50.9566V6.88L51.1366 6.98V14ZM51.1366 8.42H50.6566V6.74H51.0966C51.1899 6.19333 51.3766 5.70667 51.6566 5.28C51.9366 4.84 52.3099 4.49333 52.7766 4.24C53.2566 3.98667 53.8366 3.86 54.5166 3.86C55.2766 3.86 55.8966 4.02 56.3766 4.34C56.8566 4.66 57.2032 5.08667 57.4166 5.62C57.6432 6.15333 57.7566 6.73333 57.7566 7.36V8.66H55.6166V7.78C55.6166 7.06 55.4566 6.53333 55.1366 6.2C54.8166 5.86667 54.2832 5.7 53.5366 5.7C52.6832 5.7 52.0699 5.93333 51.6966 6.4C51.3232 6.86667 51.1366 7.54 51.1366 8.42ZM64.1133 14.2C63.0333 14.2 62.0866 14 61.2733 13.6C60.4599 13.2 59.8266 12.6133 59.3733 11.84C58.9333 11.0667 58.7133 10.1333 58.7133 9.04C58.7133 8 58.9333 7.09333 59.3733 6.32C59.8266 5.54667 60.4533 4.94667 61.2533 4.52C62.0533 4.08 62.9933 3.86 64.0733 3.86C65.0999 3.86 65.9999 4.04667 66.7733 4.42C67.5599 4.78 68.1666 5.31333 68.5933 6.02C69.0333 6.71333 69.2533 7.56667 69.2533 8.58C69.2533 8.75333 69.2466 8.92 69.2333 9.08C69.2199 9.22667 69.1999 9.37333 69.1733 9.52H60.0933V8.32H67.7533L67.1933 9.06C67.2066 8.92667 67.2133 8.8 67.2133 8.68C67.2133 8.54667 67.2133 8.41333 67.2133 8.28C67.2133 7.36 66.9466 6.68 66.4133 6.24C65.8933 5.78667 65.0999 5.56 64.0333 5.56C62.8466 5.56 61.9999 5.83333 61.4933 6.38C60.9866 6.92667 60.7333 7.71333 60.7333 8.74V9.26C60.7333 10.3 60.9866 11.0933 61.4933 11.64C61.9999 12.1867 62.8533 12.46 64.0533 12.46C65.0933 12.46 65.8399 12.3 66.2933 11.98C66.7599 11.6467 66.9933 11.1867 66.9933 10.6V10.44H69.1533V10.62C69.1533 11.3267 68.9333 11.9533 68.4933 12.5C68.0666 13.0333 67.4733 13.4533 66.7133 13.76C65.9666 14.0533 65.0999 14.2 64.1133 14.2ZM77.0911 14H71.6911V12.06H77.0911C78.1311 12.06 78.9778 11.9067 79.6311 11.6C80.2978 11.28 80.7911 10.7733 81.1111 10.08C81.4311 9.37333 81.5911 8.44667 81.5911 7.3C81.5911 6.14 81.4311 5.21333 81.1111 4.52C80.7911 3.82667 80.2978 3.32667 79.6311 3.02C78.9778 2.7 78.1311 2.54 77.0911 2.54H71.6911V0.6H77.0911C78.4911 0.6 79.6911 0.873333 80.6911 1.42C81.7044 1.95333 82.4844 2.72 83.0311 3.72C83.5911 4.72 83.8711 5.91333 83.8711 7.3C83.8711 8.68667 83.5911 9.88 83.0311 10.88C82.4844 11.88 81.7044 12.6533 80.6911 13.2C79.6911 13.7333 78.4911 14 77.0911 14ZM73.1311 14H70.9911V0.6H73.1311V14ZM90.4805 14.2C89.4005 14.2 88.4538 14 87.6405 13.6C86.8271 13.2 86.1938 12.6133 85.7405 11.84C85.3005 11.0667 85.0805 10.1333 85.0805 9.04C85.0805 8 85.3005 7.09333 85.7405 6.32C86.1938 5.54667 86.8205 4.94667 87.6205 4.52C88.4205 4.08 89.3605 3.86 90.4405 3.86C91.4671 3.86 92.3671 4.04667 93.1405 4.42C93.9271 4.78 94.5338 5.31333 94.9605 6.02C95.4005 6.71333 95.6205 7.56667 95.6205 8.58C95.6205 8.75333 95.6138 8.92 95.6005 9.08C95.5871 9.22667 95.5671 9.37333 95.5405 9.52H86.4605V8.32H94.1205L93.5605 9.06C93.5738 8.92667 93.5805 8.8 93.5805 8.68C93.5805 8.54667 93.5805 8.41333 93.5805 8.28C93.5805 7.36 93.3138 6.68 92.7805 6.24C92.2605 5.78667 91.4671 5.56 90.4005 5.56C89.2138 5.56 88.3671 5.83333 87.8605 6.38C87.3538 6.92667 87.1005 7.71333 87.1005 8.74V9.26C87.1005 10.3 87.3538 11.0933 87.8605 11.64C88.3671 12.1867 89.2205 12.46 90.4205 12.46C91.4605 12.46 92.2071 12.3 92.6605 11.98C93.1271 11.6467 93.3605 11.1867 93.3605 10.6V10.44H95.5205V10.62C95.5205 11.3267 95.3005 11.9533 94.8605 12.5C94.4338 13.0333 93.8405 13.4533 93.0805 13.76C92.3338 14.0533 91.4671 14.2 90.4805 14.2ZM103.758 14H101.478C100.412 14 99.5649 13.74 98.9383 13.22C98.3249 12.7 98.0183 11.84 98.0183 10.64V1.88H100.158V10.52C100.158 11.1333 100.305 11.5467 100.598 11.76C100.892 11.96 101.345 12.06 101.958 12.06H103.758V14ZM103.758 5.86H96.3383V4.06H103.758V5.86ZM114.509 14H112.529V11.44L112.389 11.38V7.98C112.389 7.15333 112.189 6.58 111.789 6.26C111.403 5.92667 110.729 5.76 109.769 5.76C108.849 5.76 108.163 5.92 107.709 6.24C107.256 6.56 107.029 7.08667 107.029 7.82V7.9H104.889V7.82C104.889 7.06 105.089 6.38667 105.489 5.8C105.889 5.2 106.463 4.72667 107.209 4.38C107.969 4.03333 108.876 3.86 109.929 3.86C110.983 3.86 111.843 4.04 112.509 4.4C113.189 4.74667 113.689 5.22667 114.009 5.84C114.343 6.45333 114.509 7.16 114.509 7.96V14ZM108.029 14.2C107.003 14.2 106.183 13.9733 105.569 13.52C104.969 13.0533 104.669 12.4133 104.669 11.6C104.669 11.08 104.796 10.6467 105.049 10.3C105.316 9.94 105.689 9.66 106.169 9.46C106.649 9.26 107.216 9.12 107.869 9.04L112.589 8.54V9.82L108.489 10.28C107.929 10.3467 107.509 10.4667 107.229 10.64C106.963 10.8 106.829 11.0733 106.829 11.46C106.829 11.86 106.969 12.16 107.249 12.36C107.543 12.5467 107.996 12.64 108.609 12.64C109.369 12.64 110.029 12.5467 110.589 12.36C111.149 12.16 111.589 11.8533 111.909 11.44C112.229 11.0267 112.389 10.4933 112.389 9.84L112.669 9.88V11.52H112.389C112.123 12.36 111.609 13.02 110.849 13.5C110.103 13.9667 109.163 14.2 108.029 14.2ZM118.598 14H116.438V4.06H118.598V14ZM118.598 2.9H116.438V0.6H118.598V2.9ZM122.758 14H120.598V0.6H122.758V14ZM129.458 14.2C127.858 14.2 126.618 13.8933 125.738 13.28C124.871 12.6667 124.438 11.7867 124.438 10.64V10.58H126.598V10.74C126.598 11.3933 126.811 11.8467 127.238 12.1C127.678 12.34 128.418 12.46 129.458 12.46C130.431 12.46 131.091 12.36 131.438 12.16C131.798 11.9467 131.978 11.62 131.978 11.18C131.978 10.7667 131.838 10.4733 131.558 10.3C131.291 10.1267 130.798 9.99333 130.078 9.9L127.358 9.54C126.411 9.42 125.671 9.15333 125.138 8.74C124.604 8.31333 124.338 7.68 124.338 6.84C124.338 6.25333 124.511 5.74 124.858 5.3C125.204 4.84667 125.724 4.49333 126.418 4.24C127.111 3.98667 127.964 3.86 128.978 3.86C129.991 3.86 130.858 3.99333 131.578 4.26C132.311 4.52667 132.871 4.92667 133.258 5.46C133.658 5.99333 133.858 6.65333 133.858 7.44V7.5H131.718V7.38C131.718 6.99333 131.638 6.66667 131.478 6.4C131.318 6.13333 131.031 5.93333 130.618 5.8C130.218 5.65333 129.651 5.58 128.918 5.58C127.998 5.58 127.358 5.68667 126.998 5.9C126.638 6.11333 126.458 6.45333 126.458 6.92C126.458 7.30667 126.591 7.58667 126.858 7.76C127.124 7.93333 127.624 8.07333 128.358 8.18L130.658 8.5C131.831 8.64667 132.698 8.93333 133.258 9.36C133.818 9.78667 134.098 10.4133 134.098 11.24C134.098 11.8533 133.904 12.3867 133.518 12.84C133.131 13.28 132.591 13.62 131.898 13.86C131.204 14.0867 130.391 14.2 129.458 14.2Z" fill="white"/>
</svg>
